# xmcd
#
# Track frame offsets: 
#        150
#        13312
#        31137
#        50340
#        74560
#        95325
#        113202
#        131832
#        151952
#        171925
#
# Disc length: 2536 seconds
#
# Revision: 0
# Processed by: cddbd v1.4PL0 Copyright (c) Steve Scherf et al.
# Submitted via: ExactAudioCopy v0.90b4
#
DISCID=8609e60a
DTITLE=Larry Howard - American Roots
DYEAR=1900
DGENRE=Blues
TTITLE0=Boogie Man
TTITLE1=You Got To Pray
TTITLE2=Achin' In My Side
TTITLE3=Real Miracle Man
TTITLE4=In His Eyes
TTITLE5=Fire Proof
TTITLE6=Livin' In Eternity
TTITLE7=The River
TTITLE8=Cover Me
TTITLE9=Blessed With The Blues
EXTD=
EXTT0=
EXTT1=
EXTT2=
EXTT3=
EXTT4=
EXTT5=
EXTT6=
EXTT7=
EXTT8=
EXTT9=
PLAYORDER=
